<svg xmlns="http://www.w3.org/2000/svg"
    xmlns:xlink="http://www.w3.org/1999/xlink" viewBox="0 0 643.3875090623186 178.55006903019566"
    height="109.76296914086143"
    width="395.52">
    <g>
        <rect width="8.054155239886452" height="155.03623938946075"
            x="416.6041760206452" y="11.756914820367456" fill="#0074d9" opacity="1"
            stroke-width="0" stroke="transparent" fill-opacity="1" class="rect-o-0"
            data-fill-palette-color="primary" rx="1%" id="o-0"
            data-palette-color="#0074d9"></rect>
    </g>
    <g transform="matrix(1,0,0,1,0,24.67660143615585)">
        <svg viewBox="0 0 395.52000000000004 129.19686615788396"
            height="129.19686615788396" width="395.52000000000004">
            <g>
                <svg viewBox="0 0 395.52000000000004 129.19686615788396"
                    height="129.19686615788396" width="395.52000000000004">
                    <g>
                        <svg viewBox="0 0 395.52000000000004 89.31096774193549"
                            height="89.31096774193549" width="395.52000000000004">
                            <g transform="matrix(1,0,0,1,0,0)">
                                <svg width="395.52000000000004"
                                    viewBox="0 -50 193.74000549316406 43.75"
                                    height="89.31096774193549"
                                    data-palette-color="#0074d9">
                                    <path
                                        d="M31.25-6.25L0-6.25 0-50 31.25-50 31.25-43.75 37.5-43.75 37.5-37.5 43.75-37.5 43.75-18.75 37.5-18.75 37.5-12.5 31.25-12.5 31.25-6.25ZM12.5-43.75L12.5-12.5 25-12.5 25-18.75 31.25-18.75 31.25-37.5 25-37.5 25-43.75 12.5-43.75ZM87.5-6.25L50-6.25 50-50 87.5-50 87.5-43.75 93.75-43.75 93.75-31.25 87.5-31.25 87.5-25 93.75-25 93.75-12.5 87.5-12.5 87.5-6.25ZM62.5-43.75L62.5-31.25 81.25-31.25 81.25-43.75 62.5-43.75ZM62.5-25L62.5-12.5 81.25-12.5 81.25-25 62.5-25ZM143.75-6.25L100-6.25 100-50 143.75-50 143.75-43.75 112.5-43.75 112.5-31.25 137.5-31.25 137.5-25 112.5-25 112.5-12.5 143.75-12.5 143.75-6.25ZM162.49-6.25L149.99-6.25 149.99-50 187.49-50 187.49-43.75 193.74-43.75 193.74-25 181.24-25 181.24-18.75 187.49-18.75 187.49-12.5 193.74-12.5 193.74-6.25 174.99-6.25 174.99-12.5 168.74-12.5 168.74-18.75 162.49-18.75 162.49-6.25ZM162.49-43.75L162.49-25 174.99-25 174.99-31.25 181.24-31.25 181.24-43.75 162.49-43.75Z"
                                        opacity="1" transform="matrix(1,0,0,1,0,0)"
                                        fill="#0074d9" class="undefined-text-0"
                                        data-fill-palette-color="primary"
                                        id="text-0"></path>
                                </svg>
                            </g>
                        </svg>
                    </g>
                    <g
                        transform="matrix(1,0,0,1,163.31020800000002,110.39514376258064)">
                        <svg viewBox="0 0 232.20979200000002 18.801722395303326"
                            height="18.801722395303326" width="232.20979200000002">
                            <g transform="matrix(1,0,0,1,0,0)">
                                <svg width="232.20979200000002"
                                    viewBox="3.5 -38.150001525878906 613.1300048828125 49.650001525878906"
                                    height="18.801722395303326"
                                    data-palette-color="#0074d9">
                                    <path
                                        d="M3.5-36.45L10.85-36.45 19.45-13.35Q19.95-12.05 20.35-10.78 20.75-9.5 21.15-7.95L21.15-7.95Q21.55-9.5 21.9-10.73 22.25-11.95 22.75-13.2L22.75-13.2 31.3-36.45 37.9-36.45 37.9 0 32.85 0 32.85-26.05Q32.85-26.95 32.93-27.8 33-28.65 33.05-29.65L33.05-29.65Q32.75-28.85 32.4-28 32.05-27.15 31.75-26.25L31.75-26.25 22.15 0.05 19.15 0.05 9.4-26.45Q9.1-27.25 8.78-28.1 8.45-28.95 8.2-29.65L8.2-29.65Q8.3-28.75 8.33-27.93 8.35-27.1 8.35-26.25L8.35-26.25 8.35 0 4.2 0 4.2-33.2 3.5-36.45ZM54.55-25.45L54.55-25.45Q58.5-25.45 60.55-23.33 62.6-21.2 62.6-17.25L62.6-17.25 62.6-5.15Q62.6-4 63-3.6 63.4-3.2 64-3.2L64-3.2Q64.45-3.2 64.95-3.33 65.45-3.45 65.9-3.65L65.9-3.65 66.8-0.8Q65.95-0.3 64.7 0.08 63.45 0.45 62.15 0.45L62.15 0.45Q60.75 0.45 59.7-0.28 58.65-1 58.35-2.95L58.35-2.95Q56.9-1.3 54.97-0.38 53.05 0.55 50.85 0.55L50.85 0.55Q47.9 0.55 45.92-1.18 43.95-2.9 43.95-5.95L43.95-5.95Q43.95-8.8 45.3-10.5 46.65-12.2 48.82-13.08 51-13.95 53.45-14.25 55.9-14.55 58.05-14.55L58.05-14.55 58.05-17.35Q58.05-19.4 57.2-20.7 56.35-22 54-22L54-22Q52.15-22 50.42-21.23 48.7-20.45 47.05-19.05L47.05-19.05 44.9-22.25Q47-23.85 49.47-24.65 51.95-25.45 54.55-25.45ZM58.05-9.6L58.05-11.1Q56.75-11.1 55.15-11 53.55-10.9 52.05-10.43 50.55-9.95 49.57-8.95 48.6-7.95 48.6-6.2L48.6-6.2Q48.6-4.65 49.7-3.93 50.8-3.2 52.35-3.2L52.35-3.2Q54.05-3.2 55.32-4.15 56.6-5.1 57.32-6.58 58.05-8.05 58.05-9.6L58.05-9.6ZM69.85-38.15L75.1-38.15 75.1-14.6 84.05-24.85 88.8-24.85 79.55-14.4 90.15 0 84.85 0 75.1-13.35 75.1 0 70.5 0 70.5-35.3 69.85-38.15ZM102.24-25.45L102.24-25.45Q105.34-25.45 107.42-24.18 109.49-22.9 110.54-20.68 111.59-18.45 111.59-15.6L111.59-15.6Q111.59-14.9 111.52-14.15 111.44-13.4 111.29-12.55L111.29-12.55 95.59-12.55Q95.59-8 97.67-5.5 99.74-3 103.14-3L103.14-3Q104.59-3 106.19-3.45 107.79-3.9 109.49-4.85L109.49-4.85 111.04-2.15Q109.34-0.75 107.04-0.05 104.74 0.65 102.54 0.65L102.54 0.65Q98.64 0.65 96.02-1.15 93.39-2.95 92.09-5.9 90.79-8.85 90.79-12.15L90.79-12.15Q90.79-14.7 91.52-17.05 92.24-19.4 93.69-21.33 95.14-23.25 97.27-24.35 99.39-25.45 102.24-25.45ZM101.89-22.1L101.89-22.1Q100.19-22.1 98.92-21.18 97.64-20.25 96.89-18.8 96.14-17.35 95.89-15.85L95.89-15.85 106.84-15.85Q106.94-17.8 106.34-19.2 105.74-20.6 104.62-21.35 103.49-22.1 101.89-22.1ZM138.29-25.4L138.29-25.4Q139.89-25.4 141.56-24.9 143.24-24.4 144.44-23.3L144.44-23.3Q144.39-24.05 144.36-24.73 144.34-25.4 144.34-26.05L144.34-26.05 144.34-35.25 143.64-38.15 148.84-38.15 148.84-7.15Q148.84-6.1 148.99-4.8 149.14-3.5 149.49-2.27 149.84-1.05 150.34-0.1L150.34-0.1 145.59 0.45Q145.29-0.35 145.04-1.2 144.79-2.05 144.69-2.85L144.69-2.85Q143.44-1.2 141.46-0.28 139.49 0.65 137.44 0.65L137.44 0.65Q134.84 0.65 132.86-0.45 130.89-1.55 129.61-3.43 128.34-5.3 127.69-7.58 127.04-9.85 127.04-12.2L127.04-12.2Q127.04-15.65 128.29-18.68 129.54-21.7 132.01-23.55 134.49-25.4 138.29-25.4ZM138.44-21.85L138.44-21.85Q136.59-21.85 135.31-21 134.04-20.15 133.29-18.75 132.54-17.35 132.21-15.73 131.89-14.1 131.89-12.5L131.89-12.5Q131.89-10.85 132.26-9.22 132.64-7.6 133.41-6.23 134.19-4.85 135.51-4.03 136.84-3.2 138.79-3.2L138.79-3.2Q140.44-3.2 141.89-4.15 143.34-5.1 144.34-6.35L144.34-6.35 144.34-14.7Q144.34-16.6 143.76-18.23 143.19-19.85 141.89-20.85 140.59-21.85 138.44-21.85ZM165.54-25.45L165.54-25.45Q169.49-25.45 171.54-23.33 173.59-21.2 173.59-17.25L173.59-17.25 173.59-5.15Q173.59-4 173.99-3.6 174.39-3.2 174.99-3.2L174.99-3.2Q175.44-3.2 175.94-3.33 176.44-3.45 176.89-3.65L176.89-3.65 177.79-0.8Q176.94-0.3 175.69 0.08 174.44 0.45 173.14 0.45L173.14 0.45Q171.74 0.45 170.69-0.28 169.64-1 169.34-2.95L169.34-2.95Q167.89-1.3 165.96-0.38 164.04 0.55 161.84 0.55L161.84 0.55Q158.89 0.55 156.91-1.18 154.94-2.9 154.94-5.95L154.94-5.95Q154.94-8.8 156.29-10.5 157.64-12.2 159.81-13.08 161.99-13.95 164.44-14.25 166.89-14.55 169.04-14.55L169.04-14.55 169.04-17.35Q169.04-19.4 168.19-20.7 167.34-22 164.99-22L164.99-22Q163.14-22 161.41-21.23 159.69-20.45 158.04-19.05L158.04-19.05 155.89-22.25Q157.99-23.85 160.46-24.65 162.94-25.45 165.54-25.45ZM169.04-9.6L169.04-11.1Q167.74-11.1 166.14-11 164.54-10.9 163.04-10.43 161.54-9.95 160.56-8.95 159.59-7.95 159.59-6.2L159.59-6.2Q159.59-4.65 160.69-3.93 161.79-3.2 163.34-3.2L163.34-3.2Q165.04-3.2 166.31-4.15 167.59-5.1 168.31-6.58 169.04-8.05 169.04-9.6L169.04-9.6ZM184.43-32L187.73-32Q187.38-30.25 187.11-28.43 186.83-26.6 186.73-24.85L186.73-24.85 193.13-24.85 192.28-21.55 186.73-21.55 186.73-6.1Q186.73-5.2 186.93-4.48 187.13-3.75 187.68-3.33 188.23-2.9 189.28-2.9L189.28-2.9Q190.08-2.9 190.88-3.05 191.68-3.2 192.43-3.4L192.43-3.4 193.13-0.4Q191.88-0.05 190.66 0.25 189.43 0.55 187.98 0.55L187.98 0.55Q184.78 0.55 183.48-1.13 182.18-2.8 182.18-5.9L182.18-5.9 182.18-21.55 178.38-21.55 178.38-24.2Q180.38-24.25 181.58-25.53 182.78-26.8 183.43-28.6 184.08-30.4 184.43-32L184.43-32ZM206.73-25.45L206.73-25.45Q210.68-25.45 212.73-23.33 214.78-21.2 214.78-17.25L214.78-17.25 214.78-5.15Q214.78-4 215.18-3.6 215.58-3.2 216.18-3.2L216.18-3.2Q216.63-3.2 217.13-3.33 217.63-3.45 218.08-3.65L218.08-3.65 218.98-0.8Q218.13-0.3 216.88 0.08 215.63 0.45 214.33 0.45L214.33 0.45Q212.93 0.45 211.88-0.28 210.83-1 210.53-2.95L210.53-2.95Q209.08-1.3 207.16-0.38 205.23 0.55 203.03 0.55L203.03 0.55Q200.08 0.55 198.11-1.18 196.13-2.9 196.13-5.95L196.13-5.95Q196.13-8.8 197.48-10.5 198.83-12.2 201.01-13.08 203.18-13.95 205.63-14.25 208.08-14.55 210.23-14.55L210.23-14.55 210.23-17.35Q210.23-19.4 209.38-20.7 208.53-22 206.18-22L206.18-22Q204.33-22 202.61-21.23 200.88-20.45 199.23-19.05L199.23-19.05 197.08-22.25Q199.18-23.85 201.66-24.65 204.13-25.45 206.73-25.45ZM210.23-9.6L210.23-11.1Q208.93-11.1 207.33-11 205.73-10.9 204.23-10.43 202.73-9.95 201.76-8.95 200.78-7.95 200.78-6.2L200.78-6.2Q200.78-4.65 201.88-3.93 202.98-3.2 204.53-3.2L204.53-3.2Q206.23-3.2 207.51-4.15 208.78-5.1 209.51-6.58 210.23-8.05 210.23-9.6L210.23-9.6ZM234.28-25.35L234.28-25.35Q236.83-25.35 238.78-24.25 240.73-23.15 242-21.28 243.28-19.4 243.93-17.15 244.58-14.9 244.58-12.55L244.58-12.55Q244.58-9.15 243.35-6.15 242.13-3.15 239.65-1.25 237.18 0.65 233.43 0.65L233.43 0.65Q231.33 0.65 229.4-0.15 227.48-0.95 226.13-2.6L226.13-2.6 225.18 0.05 222.58 0.05Q222.63-0.8 222.68-1.68 222.73-2.55 222.73-3.35L222.73-3.35 222.73-35.3 222.03-38.15 227.28-38.15 227.28-24.7Q227.28-24.05 227.25-23.55 227.23-23.05 227.18-22.6L227.18-22.6Q228.78-24.05 230.45-24.7 232.13-25.35 234.28-25.35ZM232.98-21.6L232.98-21.6Q231.38-21.6 229.88-20.83 228.38-20.05 227.28-18.9L227.28-18.9 227.28-10Q227.28-8 227.85-6.33 228.43-4.65 229.75-3.65 231.08-2.65 233.28-2.65L233.28-2.65Q235.13-2.65 236.35-3.63 237.58-4.6 238.3-6.08 239.03-7.55 239.35-9.22 239.68-10.9 239.68-12.35L239.68-12.35Q239.68-13.95 239.33-15.55 238.98-17.15 238.18-18.53 237.38-19.9 236.1-20.75 234.83-21.6 232.98-21.6ZM259.33-25.45L259.33-25.45Q263.28-25.45 265.33-23.33 267.38-21.2 267.38-17.25L267.38-17.25 267.38-5.15Q267.38-4 267.78-3.6 268.18-3.2 268.78-3.2L268.78-3.2Q269.23-3.2 269.73-3.33 270.23-3.45 270.68-3.65L270.68-3.65 271.58-0.8Q270.73-0.3 269.48 0.08 268.23 0.45 266.93 0.45L266.93 0.45Q265.53 0.45 264.48-0.28 263.43-1 263.13-2.95L263.13-2.95Q261.68-1.3 259.75-0.38 257.83 0.55 255.63 0.55L255.63 0.55Q252.68 0.55 250.7-1.18 248.73-2.9 248.73-5.95L248.73-5.95Q248.73-8.8 250.08-10.5 251.43-12.2 253.6-13.08 255.78-13.95 258.23-14.25 260.68-14.55 262.83-14.55L262.83-14.55 262.83-17.35Q262.83-19.4 261.98-20.7 261.13-22 258.78-22L258.78-22Q256.93-22 255.2-21.23 253.48-20.45 251.83-19.05L251.83-19.05 249.68-22.25Q251.78-23.85 254.25-24.65 256.73-25.45 259.33-25.45ZM262.83-9.6L262.83-11.1Q261.53-11.1 259.93-11 258.33-10.9 256.83-10.43 255.33-9.95 254.35-8.95 253.38-7.95 253.38-6.2L253.38-6.2Q253.38-4.65 254.48-3.93 255.58-3.2 257.13-3.2L257.13-3.2Q258.83-3.2 260.1-4.15 261.38-5.1 262.1-6.58 262.83-8.05 262.83-9.6L262.83-9.6ZM283.52-25.45L283.52-25.45Q285.22-25.45 286.97-25.05 288.72-24.65 290.17-23.75L290.17-23.75 288.57-20.35Q287.52-21.2 286.17-21.65 284.82-22.1 283.52-22.1L283.52-22.1Q281.77-22.1 280.47-21.33 279.17-20.55 279.17-18.9L279.17-18.9Q279.17-17.15 280.32-16.3 281.47-15.45 283.12-14.7L283.12-14.7Q284.37-14.1 285.65-13.5 286.92-12.9 288.02-12.05 289.12-11.2 289.8-9.95 290.47-8.7 290.47-6.85L290.47-6.85Q290.47-4.3 289.2-2.63 287.92-0.95 285.9-0.15 283.87 0.65 281.57 0.65L281.57 0.65Q279.57 0.65 277.5 0.1 275.42-0.45 273.72-1.45L273.72-1.45 275.57-4.7Q276.77-3.85 278.25-3.28 279.72-2.7 281.17-2.7L281.17-2.7Q282.97-2.7 284.35-3.58 285.72-4.45 285.72-6.25L285.72-6.25Q285.72-7.45 284.97-8.25 284.22-9.05 283.07-9.68 281.92-10.3 280.67-10.85L280.67-10.85Q279.17-11.55 277.72-12.4 276.27-13.25 275.35-14.6 274.42-15.95 274.42-18.1L274.42-18.1Q274.42-20.55 275.75-22.18 277.07-23.8 279.15-24.63 281.22-25.45 283.52-25.45ZM306.32-25.45L306.32-25.45Q309.42-25.45 311.5-24.18 313.57-22.9 314.62-20.68 315.67-18.45 315.67-15.6L315.67-15.6Q315.67-14.9 315.6-14.15 315.52-13.4 315.37-12.55L315.37-12.55 299.67-12.55Q299.67-8 301.75-5.5 303.82-3 307.22-3L307.22-3Q308.67-3 310.27-3.45 311.87-3.9 313.57-4.85L313.57-4.85 315.12-2.15Q313.42-0.75 311.12-0.05 308.82 0.65 306.62 0.65L306.62 0.65Q302.72 0.65 300.1-1.15 297.47-2.95 296.17-5.9 294.87-8.85 294.87-12.15L294.87-12.15Q294.87-14.7 295.6-17.05 296.32-19.4 297.77-21.33 299.22-23.25 301.35-24.35 303.47-25.45 306.32-25.45ZM305.97-22.1L305.97-22.1Q304.27-22.1 303-21.18 301.72-20.25 300.97-18.8 300.22-17.35 299.97-15.85L299.97-15.85 310.92-15.85Q311.02-17.8 310.42-19.2 309.82-20.6 308.7-21.35 307.57-22.1 305.97-22.1ZM342.37-25.4L342.37-25.4Q343.97-25.4 345.64-24.9 347.32-24.4 348.52-23.3L348.52-23.3Q348.47-24.05 348.44-24.73 348.42-25.4 348.42-26.05L348.42-26.05 348.42-35.25 347.72-38.15 352.92-38.15 352.92-7.15Q352.92-6.1 353.07-4.8 353.22-3.5 353.57-2.27 353.92-1.05 354.42-0.1L354.42-0.1 349.67 0.45Q349.37-0.35 349.12-1.2 348.87-2.05 348.77-2.85L348.77-2.85Q347.52-1.2 345.54-0.28 343.57 0.65 341.52 0.65L341.52 0.65Q338.92 0.65 336.94-0.45 334.97-1.55 333.69-3.43 332.42-5.3 331.77-7.58 331.12-9.85 331.12-12.2L331.12-12.2Q331.12-15.65 332.37-18.68 333.62-21.7 336.09-23.55 338.57-25.4 342.37-25.4ZM342.52-21.85L342.52-21.85Q340.67-21.85 339.39-21 338.12-20.15 337.37-18.75 336.62-17.35 336.29-15.73 335.97-14.1 335.97-12.5L335.97-12.5Q335.97-10.85 336.34-9.22 336.72-7.6 337.49-6.23 338.27-4.85 339.59-4.03 340.92-3.2 342.87-3.2L342.87-3.2Q344.52-3.2 345.97-4.15 347.42-5.1 348.42-6.35L348.42-6.35 348.42-14.7Q348.42-16.6 347.84-18.23 347.27-19.85 345.97-20.85 344.67-21.85 342.52-21.85ZM370.41-25.45L370.41-25.45Q373.51-25.45 375.59-24.18 377.66-22.9 378.71-20.68 379.76-18.45 379.76-15.6L379.76-15.6Q379.76-14.9 379.69-14.15 379.61-13.4 379.46-12.55L379.46-12.55 363.76-12.55Q363.76-8 365.84-5.5 367.91-3 371.31-3L371.31-3Q372.76-3 374.36-3.45 375.96-3.9 377.66-4.85L377.66-4.85 379.21-2.15Q377.51-0.75 375.21-0.05 372.91 0.65 370.71 0.65L370.71 0.65Q366.81 0.65 364.19-1.15 361.56-2.95 360.26-5.9 358.96-8.85 358.96-12.15L358.96-12.15Q358.96-14.7 359.69-17.05 360.41-19.4 361.86-21.33 363.31-23.25 365.44-24.35 367.56-25.45 370.41-25.45ZM370.06-22.1L370.06-22.1Q368.36-22.1 367.09-21.18 365.81-20.25 365.06-18.8 364.31-17.35 364.06-15.85L364.06-15.85 375.01-15.85Q375.11-17.8 374.51-19.2 373.91-20.6 372.79-21.35 371.66-22.1 370.06-22.1ZM393.81-25.45L393.81-25.45Q395.51-25.45 397.26-25.05 399.01-24.65 400.46-23.75L400.46-23.75 398.86-20.35Q397.81-21.2 396.46-21.65 395.11-22.1 393.81-22.1L393.81-22.1Q392.06-22.1 390.76-21.33 389.46-20.55 389.46-18.9L389.46-18.9Q389.46-17.15 390.61-16.3 391.76-15.45 393.41-14.7L393.41-14.7Q394.66-14.1 395.94-13.5 397.21-12.9 398.31-12.05 399.41-11.2 400.09-9.95 400.76-8.7 400.76-6.85L400.76-6.85Q400.76-4.3 399.49-2.63 398.21-0.95 396.19-0.15 394.16 0.65 391.86 0.65L391.86 0.65Q389.86 0.65 387.79 0.1 385.71-0.45 384.01-1.45L384.01-1.45 385.86-4.7Q387.06-3.85 388.54-3.28 390.01-2.7 391.46-2.7L391.46-2.7Q393.26-2.7 394.64-3.58 396.01-4.45 396.01-6.25L396.01-6.25Q396.01-7.45 395.26-8.25 394.51-9.05 393.36-9.68 392.21-10.3 390.96-10.85L390.96-10.85Q389.46-11.55 388.01-12.4 386.56-13.25 385.64-14.6 384.71-15.95 384.71-18.1L384.71-18.1Q384.71-20.55 386.04-22.18 387.36-23.8 389.44-24.63 391.51-25.45 393.81-25.45ZM412.41-33.35L412.41-33.35Q412.41-32.05 411.48-31.1 410.56-30.15 409.16-30.15L409.16-30.15Q407.86-30.15 406.93-31.1 406.01-32.05 406.01-33.35L406.01-33.35Q406.01-34.65 406.93-35.6 407.86-36.55 409.21-36.55L409.21-36.55Q410.51-36.55 411.46-35.6 412.41-34.65 412.41-33.35ZM406.36-24.85L411.51-24.85 411.51 0 406.96 0 406.96-21.95 406.36-24.85ZM426.51-25.5L426.51-25.5Q427.96-25.5 429.26-25.13 430.56-24.75 431.96-24.75L431.96-24.75Q433.91-24.75 435.93-24.98 437.96-25.2 440.11-25.5L440.11-25.5 439.16-21.75 435.11-21.75Q434.76-21.75 434.41-21.8 434.06-21.85 433.71-21.9L433.71-21.9Q434.56-20.8 434.98-19.58 435.41-18.35 435.41-17.05L435.41-17.05Q435.41-14.55 434.26-12.55 433.11-10.55 430.96-9.43 428.81-8.3 425.86-8.3L425.86-8.3Q424.71-8.3 423.81-7.68 422.91-7.05 422.91-5.75L422.91-5.75Q422.91-4.9 423.41-4.53 423.91-4.15 424.66-4.1 425.41-4.05 426.16-4.05L426.16-4.05 430.51-4.05Q431.86-4.05 433.26-3.88 434.66-3.7 435.86-3.18 437.06-2.65 437.78-1.6 438.51-0.55 438.51 1.25L438.51 1.25Q438.51 4 437.38 5.95 436.26 7.9 434.38 9.15 432.51 10.4 430.18 10.95 427.86 11.5 425.51 11.5L425.51 11.5Q424.11 11.5 422.51 11.2 420.91 10.9 419.51 10.18 418.11 9.45 417.23 8.25 416.36 7.05 416.36 5.2L416.36 5.2Q416.36 3.25 417.56 1.75 418.76 0.25 420.36-0.7L420.36-0.7 420.36-0.9Q419.31-1.35 418.66-2.33 418.01-3.3 418.01-4.45L418.01-4.45Q418.01-5.05 418.51-5.6 419.01-6.15 419.81-7.1 420.61-8.05 421.51-9.7L421.51-9.7Q419.71-10.9 418.63-12.78 417.56-14.65 417.56-16.85L417.56-16.85Q417.56-19.3 418.78-21.25 420.01-23.2 422.06-24.35 424.11-25.5 426.51-25.5ZM426.51-22.3L426.51-22.3Q424.76-22.3 423.53-20.73 422.31-19.15 422.31-16.85L422.31-16.85Q422.31-14.5 423.53-12.93 424.76-11.35 426.46-11.35L426.46-11.35Q428.41-11.35 429.56-12.88 430.71-14.4 430.71-16.8L430.71-16.8Q430.71-19.15 429.48-20.73 428.26-22.3 426.51-22.3ZM429.26 0.05L423.56 0.05Q422.61 0.7 421.81 1.93 421.01 3.15 421.01 4.3L421.01 4.3Q421.01 5.5 421.86 6.3 422.71 7.1 423.96 7.5 425.21 7.9 426.26 7.9L426.26 7.9Q427.96 7.9 429.83 7.43 431.71 6.95 433.01 5.83 434.31 4.7 434.31 2.7L434.31 2.7Q434.31 1.4 433.48 0.85 432.66 0.3 431.51 0.18 430.36 0.05 429.26 0.05L429.26 0.05ZM441.65-24.65L446.6-25.3Q446.95-24.45 447.18-23.58 447.4-22.7 447.5-21.8L447.5-21.8Q449-23.25 451.05-24.35 453.1-25.45 455.2-25.45L455.2-25.45Q458-25.45 459.65-24.33 461.3-23.2 462.05-21.23 462.8-19.25 462.8-16.65L462.8-16.65 462.8 0 458.25 0 458.25-15.45Q458.25-16.9 458.05-18.32 457.85-19.75 457.03-20.65 456.2-21.55 454.3-21.55L454.3-21.55Q453.2-21.55 451.98-21.08 450.75-20.6 449.68-19.88 448.6-19.15 447.8-18.35L447.8-18.35 447.8 0 443.3 0 443.3-17.65Q443.3-18.6 443.15-19.93 443-21.25 442.65-22.55 442.3-23.85 441.65-24.65L441.65-24.65ZM490.35-25.45L490.35-25.45Q492.05-25.45 493.8-25.05 495.55-24.65 497-23.75L497-23.75 495.4-20.35Q494.35-21.2 493-21.65 491.65-22.1 490.35-22.1L490.35-22.1Q488.6-22.1 487.3-21.33 486-20.55 486-18.9L486-18.9Q486-17.15 487.15-16.3 488.3-15.45 489.95-14.7L489.95-14.7Q491.2-14.1 492.47-13.5 493.75-12.9 494.85-12.05 495.95-11.2 496.62-9.95 497.3-8.7 497.3-6.85L497.3-6.85Q497.3-4.3 496.02-2.63 494.75-0.95 492.72-0.15 490.7 0.65 488.4 0.65L488.4 0.65Q486.4 0.65 484.32 0.1 482.25-0.45 480.55-1.45L480.55-1.45 482.4-4.7Q483.6-3.85 485.07-3.28 486.55-2.7 488-2.7L488-2.7Q489.8-2.7 491.17-3.58 492.55-4.45 492.55-6.25L492.55-6.25Q492.55-7.45 491.8-8.25 491.05-9.05 489.9-9.68 488.75-10.3 487.5-10.85L487.5-10.85Q486-11.55 484.55-12.4 483.1-13.25 482.17-14.6 481.25-15.95 481.25-18.1L481.25-18.1Q481.25-20.55 482.57-22.18 483.9-23.8 485.97-24.63 488.05-25.45 490.35-25.45ZM508.95-33.35L508.95-33.35Q508.95-32.05 508.02-31.1 507.1-30.15 505.7-30.15L505.7-30.15Q504.4-30.15 503.47-31.1 502.55-32.05 502.55-33.35L502.55-33.35Q502.55-34.65 503.47-35.6 504.4-36.55 505.75-36.55L505.75-36.55Q507.05-36.55 508-35.6 508.95-34.65 508.95-33.35ZM502.9-24.85L508.05-24.85 508.05 0 503.5 0 503.5-21.95 502.9-24.85ZM514.39-24.7L519.34-25.25Q519.69-24.45 519.92-23.58 520.14-22.7 520.24-21.85L520.24-21.85Q521.69-23.2 523.59-24.33 525.49-25.45 527.59-25.45L527.59-25.45Q529.89-25.45 531.59-24.5 533.29-23.55 534.29-21.4L534.29-21.4Q535.84-22.95 537.87-24.2 539.89-25.45 542.14-25.45L542.14-25.45Q544.89-25.45 546.52-24.3 548.14-23.15 548.87-21.2 549.59-19.25 549.59-16.65L549.59-16.65 549.59 0 545.04 0 545.04-15.55Q545.04-17 544.82-18.38 544.59-19.75 543.74-20.65 542.89-21.55 541.09-21.55L541.09-21.55Q539.44-21.55 537.79-20.48 536.14-19.4 535.04-18.3L535.04-18.3 535.04 0 530.49 0 530.49-15.55Q530.49-17 530.27-18.38 530.04-19.75 529.22-20.65 528.39-21.55 526.54-21.55L526.54-21.55Q525.54-21.55 524.42-21.05 523.29-20.55 522.29-19.8 521.29-19.05 520.54-18.35L520.54-18.35 520.54 0 515.99 0 515.99-18Q515.99-19 515.82-20.23 515.64-21.45 515.29-22.65 514.94-23.85 514.39-24.7L514.39-24.7ZM555.84-24.65L560.64-25.25Q561.04-24.45 561.24-23.6 561.44-22.75 561.54-21.95L561.54-21.95Q562.84-23.55 564.76-24.5 566.69-25.45 568.79-25.45L568.79-25.45Q571.44-25.45 573.39-24.35 575.34-23.25 576.64-21.38 577.94-19.5 578.57-17.23 579.19-14.95 579.19-12.6L579.19-12.6Q579.19-9.15 577.97-6.13 576.74-3.1 574.24-1.25 571.74 0.6 567.94 0.6L567.94 0.6Q566.34 0.6 564.66 0.1 562.99-0.4 561.79-1.5L561.79-1.5Q561.89-0.8 561.89-0.08 561.89 0.65 561.89 1.1L561.89 1.1 561.89 7.9 562.59 10.8 557.39 10.8 557.39-17.65Q557.39-18.7 557.24-19.98 557.09-21.25 556.76-22.5 556.44-23.75 555.84-24.65L555.84-24.65ZM567.44-21.6L567.44-21.6Q565.84-21.6 564.37-20.65 562.89-19.7 561.89-18.45L561.89-18.45 561.89-10.1Q561.89-8.25 562.49-6.6 563.09-4.95 564.37-3.95 565.64-2.95 567.74-2.95L567.74-2.95Q569.64-2.95 570.91-3.8 572.19-4.65 572.97-6.05 573.74-7.45 574.04-9.08 574.34-10.7 574.34-12.3L574.34-12.3Q574.34-13.95 573.99-15.6 573.64-17.25 572.82-18.6 571.99-19.95 570.69-20.78 569.39-21.6 567.44-21.6ZM584.64-38.15L589.84-38.15 589.84 0 585.29 0 585.29-35.3 584.64-38.15ZM607.28-25.45L607.28-25.45Q610.38-25.45 612.46-24.18 614.53-22.9 615.58-20.68 616.63-18.45 616.63-15.6L616.63-15.6Q616.63-14.9 616.56-14.15 616.48-13.4 616.33-12.55L616.33-12.55 600.63-12.55Q600.63-8 602.71-5.5 604.78-3 608.18-3L608.18-3Q609.63-3 611.23-3.45 612.83-3.9 614.53-4.85L614.53-4.85 616.08-2.15Q614.38-0.75 612.08-0.05 609.78 0.65 607.58 0.65L607.58 0.65Q603.68 0.65 601.06-1.15 598.43-2.95 597.13-5.9 595.83-8.85 595.83-12.15L595.83-12.15Q595.83-14.7 596.56-17.05 597.28-19.4 598.73-21.33 600.18-23.25 602.31-24.35 604.43-25.45 607.28-25.45ZM606.93-22.1L606.93-22.1Q605.23-22.1 603.96-21.18 602.68-20.25 601.93-18.8 601.18-17.35 600.93-15.85L600.93-15.85 611.88-15.85Q611.98-17.8 611.38-19.2 610.78-20.6 609.66-21.35 608.53-22.1 606.93-22.1Z"
                                        opacity="1" transform="matrix(1,0,0,1,0,0)"
                                        fill="#0074d9" class="undefined-text-1"
                                        data-fill-palette-color="secondary"
                                        id="text-1"></path>
                                </svg>
                            </g>
                        </svg>
                    </g>
                </svg>
            </g>
        </svg>
    </g>
    <g transform="matrix(1,0,0,1,445.74250728117676,0)">
        <svg viewBox="0 0 197.64500178114181 178.55006903019566"
            height="178.55006903019566" width="197.64500178114181">
            <g>
                <svg xmlns="http://www.w3.org/2000/svg"
                    xmlns:xlink="http://www.w3.org/1999/xlink" version="1.1" x="0"
                    y="0"
                    viewBox="11.999974250793457 15.855531692504883 75.0999526977539 67.84437561035156"
                    enable-background="new 0 0 100 100" xml:space="preserve"
                    height="178.55006903019566" width="197.64500178114181"
                    class="icon-icon-0" data-fill-palette-color="accent" id="icon-0"><path fill-rule="evenodd" clip-rule="evenodd" d="M52.6 29.6c0 0.6 0.1 1.1 0.2 1.6 0.1 0.5 0 1 0.1 1.6 0 0.2 0.1 0.5 0.2 0.7 0.1 0.4 0.1 0.7 0.2 1.1 0.1 0.2 0.1 0.4 0.2 0.7 0.1 0.2 0 0.4 0.1 0.8 0 0.1 0.1 0.3 0.1 0.4 0 0.3-0.1 0.7-0.1 1 0 0.3 0.1 0.8 0.1 1.1 0 0.6 0 1.1 0 1.8 0 0.1 0.1 0.3 0.1 0.5 0 0.4-0.1 0.8-0.1 1 0.1 0.3 0.2 0.3 0.4 0.5 0 0 0 0.1 0.1 0.1 0.1 0 0.2 0.2 0.3 0.3 0 0 0.1 0 0.2 0 0.1 0.1 0.1 0.2 0.3 0.3 0.1 0.1 0.2 0.1 0.3 0.2 0.2 0.1 0.4 0.5 0.6 0.6 0.1 0 0.2 0 0.2 0.1 0 0 0 0.1 0.1 0.1 0.1 0 0.2 0.2 0.3 0.3 0.1 0.1 0.2 0 0.2 0.1 0.1 0.1 0.2 0.3 0.3 0.4 0.1 0.1 0.4 0.3 0.6 0.5 0 0 0 0.2 0.1 0.2 0 0 0.3 0.2 0.5 0.2 0.2 0 0.5 0 0.9-0.1 0 0 0-0.1 0.1-0.1 0.7 0 1.5-0.3 2.1-0.4 0.6-0.1 1.1-0.2 1.6-0.2 0 0 0-0.1 0.1-0.1 0.2 0 0.4 0 0.6-0.1 0.3 0 0.5 0 0.8-0.1 0 0 0-0.1 0.1-0.1 0.1 0 0.2 0 0.3 0 0 0 0-0.1 0.1-0.1 0.3 0 0.4 0 0.7-0.1 0.1 0 0.2 0 0.2 0 0.1 0 0.3-0.1 0.6-0.1 0.1 0 0.2 0 0.2 0 0.5-0.1 1.5-0.3 2.1-0.4 0.1 0 0.3 0 0.3 0 0 0 0.2-0.1 0.4-0.2 0.2-0.1 0.4-0.1 0.7-0.2 0.3-0.1 0.6-0.1 1-0.2 0.3 0 0.6 0 0.7-0.1 0.2-0.1 0.3-0.2 0.4-0.3 0.1-0.1 0.1-0.1 0.2-0.2 0-0.1 0.1-0.1 0.2-0.2 0.1-0.1 0-0.2 0.1-0.3 0 0 0.1-0.1 0.2-0.2 0.1-0.1 0.2-0.2 0.3-0.3 0 0 0-0.1 0-0.2 0 0 0.1-0.1 0.2-0.1 0.1-0.1 0-0.2 0.1-0.2 0.1-0.1 0.2-0.2 0.3-0.3 0 0 0-0.1 0-0.2 0.1-0.1 0.2-0.1 0.3-0.2 0.1-0.1 0.2-0.3 0.2-0.4 0 0 0.1 0 0.2 0 0.1-0.1 0.2-0.3 0.4-0.4 0.1-0.1 0.1-0.2 0.2-0.2 0 0 0.1 0 0.2 0 0.1-0.1 0.1-0.2 0.3-0.2 0 0 0.1 0 0.2 0 0.2-0.2 0.8-0.4 1.2-0.5 0.4-0.1 1.2 0 1.6-0.2 0.1-0.1 0.2-0.2 0.5-0.2 0.2-0.1 0.5-0.1 0.9-0.2 0.2 0 0.4-0.1 0.6-0.1 0.2 0 0.4 0 0.6 0.1 0 0 0 0.1 0.1 0.1 0.2 0 0.2 0.1 0.4 0.2 0.4 0.1 0.8 0.2 1 0.3 0 0 0 0.1 0.1 0.1 0 0 0.1 0.1 0.2 0.1 0.1 0 0.1 0.1 0.2 0.2 0 0 0.1 0 0.2 0 0 0 0.1 0.1 0.1 0.2 0.1 0.1 0.2 0 0.2 0.1 0 0 0 0.1 0.1 0.1 0.1 0 0.2 0.2 0.3 0.2 0 0 0.1 0.1 0.2 0.2 0.1 0 0.2 0.2 0.3 0.2 0.1 0 0.2 0.2 0.3 0.2 0.1 0.1 0.2 0.2 0.3 0.3 0 0 0.1 0 0.2 0 0 0 0.1 0.1 0.1 0.2 0.1 0.1 0.4 0.2 0.6 0.4 0 0.1 0 0.2 0.1 0.2 0.1 0.1 0.3 0.4 0.3 0.6 0 0.2 0.1 0.3 0.2 0.5 0 0 0 0.1 0 0.2 0.2 0.1 0.2 0.6 0.2 1 0.1 0.3 0.2 0.6 0.2 0.9 0 0.7-0.3 1.3-0.6 2-0.1 0.1 0 0.2-0.1 0.3 0 0-0.1 0.1-0.2 0.2-0.1 0.1-0.1 0.3-0.2 0.5 0 0.1 0 0.2-0.1 0.2 0 0-0.1 0.1-0.2 0.2-0.1 0.1-0.1 0.4-0.2 0.5-0.1 0.1-0.2 0.2-0.3 0.3-0.1 0.1-0.2 0.2-0.3 0.3-0.2 0.2-0.4 0.5-0.7 0.7 0 0-0.1 0.1-0.1 0.1-0.1 0.1-0.3 0.1-0.4 0.2 0 0-0.1 0.1-0.2 0.2-0.1 0.1-0.2 0-0.3 0.1-0.1 0-0.1 0.1-0.2 0.2-0.1 0-0.2 0-0.2 0.1 0 0-0.1 0.1-0.2 0.2 0 0-0.1 0-0.2 0-0.1 0-0.2 0.1-0.4 0.2-0.1 0-0.3 0-0.3 0 0 0 0 0.1 0 0.1-0.2 0-0.4 0.1-0.6 0.1-0.1 0-0.2 0.1-0.3 0.1-1.1 0.1-2.2-0.1-3.1-0.4-0.1 0-0.3-0.1-0.4-0.2-0.2-0.1-0.4-0.1-0.7-0.2 0 0 0-0.1-0.1-0.1 0 0-0.1 0-0.1 0-0.1 0-0.1-0.1-0.2-0.1-0.1 0-0.5-0.2-0.7-0.2 0 0 0-0.1-0.1-0.1 0 0-0.1-0.1-0.2-0.1-0.1 0-0.2-0.2-0.3-0.2-0.1 0-0.4-0.3-0.6-0.5-0.2-0.2-0.5-0.4-0.7-0.6-0.1-0.1-0.2-0.2-0.2-0.2 0 0 0-0.1 0-0.2-0.1-0.1-0.3-0.1-0.3-0.4-0.1 0-0.3-0.1-0.3-0.2-0.4 0-0.7 0.1-1 0.2-0.5 0.1-1.2 0-1.6 0.2-0.1 0.1-0.5 0.2-0.7 0.2-0.1 0-0.3 0-0.5 0-0.1 0-0.2 0.1-0.3 0.1-0.2 0-0.4-0.1-0.8-0.1-0.5 0-1 0.2-1.6 0.2-0.3 0-0.6 0-0.9 0.1-0.1 0-0.5 0.1-0.7 0.2-0.4 0.1-0.8 0.2-1.2 0.2-0.1 0-0.2 0-0.2 0-0.3 0.1-0.9 0.1-1.4 0.2-0.4 0.1-1.2 0-1.7 0.2-0.1 0-0.2 0-0.3 0.1-0.3 0.2-0.3 0.7-0.4 1.2-0.1 0.3-0.1 0.3-0.2 0.5 0 0.1-0.1 0.2-0.2 0.3-0.1 0.1-0.1 0.3-0.2 0.4 0 0.1-0.1 0.1-0.2 0.2-0.1 0.2-0.1 0.3-0.2 0.5 0 0-0.1 0-0.1 0.1 0 0.1-0.1 0.2-0.2 0.2-0.1 0.1-0.1 0.2-0.2 0.4 0 0-0.1 0-0.1 0.1 0 0.1-0.1 0.2-0.2 0.2-0.1 0.1-0.3 0.3-0.3 0.6 0 0.2 0.1 0.4 0.2 0.6 0.1 0.2 0.1 0.4 0.2 0.6 0.3 0.6 0.6 1 1 1.6 0 0.1 0 0.1 0.1 0.2 0 0 0.1 0.1 0.1 0.1 0.1 0.1 0 0.2 0.1 0.3 0 0.1 0.2 0.2 0.2 0.2 0 0 0 0.1 0 0.2 0 0 0.1 0.1 0.2 0.1 0.1 0.1 0 0.2 0.1 0.3 0 0 0.1 0.1 0.2 0.1 0.1 0.1 0 0.2 0.1 0.3 0 0 0.1 0 0.1 0.1 0 0.1 0.2 0.2 0.2 0.4 0 0.1 0.1 0.2 0.2 0.3 0.1 0.1 0.3 0.4 0.4 0.6 0 0 0.1 0.1 0.2 0.1 0.1 0.2 0.1 0.2 0.2 0.4 0.2 0.3 0.5 0.6 0.7 1 0 0.1 0.2 0.2 0.2 0.3 0 0.1 0.2 0.2 0.3 0.3 0 0 0 0.1 0 0.2 0 0 0.1 0.1 0.2 0.1 0.1 0.1 0 0.2 0.1 0.3 0 0 0.1 0.1 0.2 0.1 0.1 0.2 0.1 0.3 0.2 0.6 0.6 0.9 1.2 1.9 1.8 2.9 0.1 0.2 0.2 0.4 0.4 0.6 0 0 0.1 0.1 0.1 0.1 0.1 0.1 0 0.2 0.1 0.3 0 0 0.1 0.1 0.2 0.1 0 0 0 0.1 0 0.2 0 0 0.1 0.1 0.2 0.1 0.1 0.2 0.1 0.2 0.2 0.4 0 0.1 0.2 0.2 0.2 0.3 0 0.1 0.2 0.1 0.2 0.2 0 0.1 0.1 0.3 0.2 0.4 0 0.1 0.1 0.1 0.2 0.2 0 0 0 0.1 0 0.2 0 0 0.1 0.1 0.2 0.1 0 0 0 0.1 0 0.2 0 0 0.1 0 0.2 0.1 0 0 0 0.1 0 0.2 0.1 0.1 0.2 0.1 0.3 0.2 0.3 0.1 0.6 0 1 0 0.2 0 0.3 0.1 0.5 0.1 0.4 0.1 0.7 0.1 1.2 0 0 0 0.1 0 0.2 0 0 0 0-0.1 0-0.1 0.6-0.1 1.3 0 1.8 0.2 0 0 0.1 0 0.2 0 0.1 0.1 0.5 0.2 0.7 0.2 0 0 0.1 0 0.2 0 0 0 0 0.1 0 0.1 0 0 0.1 0 0.2 0 0 0 0 0.1 0 0.1 0 0 0.1 0 0.2 0 0 0 0 0.1 0 0.1 0 0 0.1 0 0.2 0 0 0 0.1 0.1 0.1 0.2 0.1 0.1 0.3 0.2 0.5 0.3 0.1 0.1 0.1 0.3 0.3 0.3 0.1 0 0.2 0.1 0.3 0.2 0.1 0.1 0.1 0.1 0.2 0.2 0.1 0.1 0.2 0.2 0.3 0.2 0.2 0 0.7 0.7 0.9 0.9 0 0 0.1 0 0.2 0 0 0 0 0.1 0.1 0.2 0 0 0.2 0.1 0.2 0.1 0 0 0 0.1 0 0.2 0 0.1 0.2 0.1 0.2 0.2 0 0.1 0 0.2 0.1 0.2 0 0.1 0.1 0.1 0.1 0.2 0.1 0.2 0.1 0.5 0.2 0.7 0.2 0.5 0.7 1.2 0.7 1.8 0.1 0.5 0 1-0.2 1.5 0 0.1-0.1 0.3-0.2 0.5 0 0.1-0.1 0.2-0.2 0.4 0 0.1 0 0.2-0.1 0.3 0 0-0.2 0.1-0.2 0.2 0 0.1 0 0.1-0.1 0.2-0.1 0.1-0.3 0.4-0.4 0.6-0.1 0.1-0.3 0.2-0.4 0.4-0.1 0.1-0.2 0.4-0.3 0.5-0.1 0.1-0.2 0-0.2 0.1 0 0 0 0.1-0.1 0.2-0.1 0-0.2 0-0.2 0.1 0 0 0 0.1-0.1 0.2-0.1 0.1-0.4 0.2-0.6 0.2 0 0 0 0.1-0.1 0.1-0.1 0-0.1 0.1-0.2 0.2 0 0-0.1 0-0.2 0-0.2 0.1-0.3 0.5-0.5 0.6-0.1 0.1-0.3 0.2-0.5 0.3C73 82.9 72.8 83 72.7 83c-0.3 0.1-0.5 0.1-0.9 0.1-0.9 0.1-2 0.1-3.1-0.1-0.1 0-0.1-0.1-0.2-0.1-0.2 0-0.3 0-0.6-0.1 0 0-0.1 0-0.2 0 0 0 0-0.1 0-0.1-0.4-0.1-0.7 0-1-0.1 0 0 0-0.1-0.1-0.1-0.2 0-0.2-0.1-0.4-0.2-0.1 0-0.2 0-0.3-0.1-0.1 0-0.1-0.1-0.2-0.2-0.1 0-0.1 0-0.2-0.1-0.1 0-0.1-0.1-0.2-0.2 0 0-0.1 0-0.2 0 0 0-0.2-0.2-0.3-0.2 0 0-0.1 0-0.1 0-0.1 0-0.1-0.1-0.2-0.2 0 0-0.1 0-0.2 0-0.1-0.1-0.1-0.2-0.3-0.2-0.1 0-0.2-0.2-0.3-0.2-0.2-0.2-0.4-0.3-0.6-0.5-0.3-0.3-0.7-0.7-1-1.1-0.1-0.1-0.1-0.1-0.2-0.2 0 0 0-0.1-0.1-0.2C62 79.1 61.8 79 61.8 79c0 0 0-0.1 0-0.2 0 0-0.2-0.2-0.2-0.4 0 0-0.1-0.1-0.1-0.2-0.1-0.2-0.1-0.4-0.2-0.6 0 0-0.1 0-0.1-0.1 0-0.2 0-0.2-0.1-0.4-0.2-0.5-0.2-1.3 0-1.8 0 0 0-0.1 0-0.2 0.1-0.1 0.1-0.1 0.2-0.2 0 0 0-0.1 0-0.2 0 0 0.1 0 0.1 0 0.1-0.2 0-0.4 0.1-0.5 0-0.1 0.1-0.1 0.2-0.2 0-0.1 0-0.2 0.1-0.2 0-0.1 0.1-0.1 0.2-0.2 0 0 0-0.1 0-0.2 0.4-0.3 0.6-0.7 0.3-1.4 0 0-0.1 0-0.1-0.1 0-0.1-0.1-0.2-0.2-0.3 0 0-0.2-0.3-0.2-0.5 0-0.1-0.2-0.5-0.3-0.6 0 0-0.1 0-0.1-0.1 0-0.1-0.1-0.2-0.2-0.3-0.1-0.1-0.2-0.4-0.3-0.6 0 0-0.1 0-0.1-0.1 0-0.1-0.1-0.2-0.2-0.3-0.1-0.1-0.1-0.2-0.2-0.2-0.1-0.1-0.1-0.3-0.2-0.5-0.1-0.1-0.1-0.2-0.2-0.2C60 68.3 60 68.2 59.9 68c0 0-0.1-0.1-0.2-0.1-0.1-0.2-0.1-0.2-0.2-0.4 0 0-0.1 0-0.1-0.1 0-0.1-0.2-0.2-0.2-0.4 0-0.1 0-0.2-0.1-0.2 0 0-0.1-0.1-0.2-0.1 0 0 0-0.1 0-0.2 0 0-0.1-0.1-0.2-0.1 0 0 0-0.1 0-0.2 0 0-0.1-0.1-0.2-0.1 0 0 0-0.1 0-0.2 0-0.1-0.1-0.1-0.2-0.2-0.1-0.1-0.1-0.2-0.2-0.4 0 0-0.1-0.1-0.1-0.1-0.1-0.1 0-0.2-0.1-0.3 0-0.1-0.1-0.1-0.2-0.2 0-0.1 0-0.1-0.1-0.2 0 0-0.2-0.3-0.2-0.5 0-0.1-0.1-0.2-0.2-0.3-0.1-0.1-0.1-0.2-0.2-0.2 0 0-0.1-0.1-0.1-0.1-0.1-0.1 0-0.2-0.1-0.3 0 0-0.1-0.1-0.2-0.1 0 0 0-0.1 0-0.2 0-0.1-0.1-0.1-0.2-0.2 0 0 0-0.1 0-0.2 0 0-0.1-0.1-0.2-0.1 0 0 0-0.1 0-0.2 0 0-0.1-0.1-0.2-0.1 0 0 0-0.1 0-0.2-0.2-0.1-0.3-0.5-0.5-0.7-0.1-0.1-0.2-0.4-0.3-0.6 0 0-0.1 0-0.1-0.1 0-0.1-0.2-0.1-0.2-0.2 0-0.1-0.2-0.3-0.2-0.4 0-0.1 0-0.1-0.1-0.2 0 0-0.2-0.4-0.2-0.5 0-0.1-0.2-0.2-0.2-0.4 0-0.1-0.2-0.2-0.2-0.3 0-0.1-0.1-0.2-0.2-0.3 0 0-0.1-0.1-0.1-0.1-0.1-0.1 0-0.2-0.1-0.3 0-0.1-0.1-0.1-0.2-0.2C54 58 54 57.9 54 57.8c0 0-0.1-0.1-0.2-0.1 0 0 0-0.1 0-0.2-0.1-0.2-0.3-0.2-0.4-0.3-0.4 0.1-0.8 0.1-1.3 0.2 0 0 0 0.1-0.1 0.1-0.5 0-1.2 0.1-2 0 0 0-0.1 0-0.2 0-0.1-0.1-0.4 0-0.5-0.1-0.1-0.2-0.2 0-0.5-0.1-0.5-0.1-1.4-0.3-1.9-0.6 0 0 0-0.1-0.1-0.1-0.1 0-0.2-0.1-0.4-0.2-0.1 0-0.2 0-0.3-0.1-0.1 0-0.1-0.1-0.2-0.2 0 0-0.1 0-0.2 0 0 0 0-0.1 0-0.1-0.1 0-0.2 0-0.2-0.1 0 0-0.1-0.1-0.2-0.2 0 0-0.1 0-0.2 0 0 0-0.2-0.1-0.2-0.1-0.1-0.1-0.6-0.3-0.8-0.4-0.1 0-0.1-0.1-0.2-0.2-0.2-0.1-0.5-0.4-0.7-0.6-0.1-0.1-0.3-0.3-0.4-0.5 0 0-0.1 0-0.1-0.1 0-0.1-0.1-0.2-0.2-0.2-0.1-0.1-0.1-0.2-0.2-0.3-0.1-0.1-0.2-0.3-0.4-0.4-0.3 0-0.5 0.3-0.8 0.4-0.1 0-0.2 0.2-0.3 0.2-0.1 0-0.2 0.1-0.3 0.2-0.3 0.2-0.9 0.5-1.3 0.8-0.1 0-0.1 0.1-0.2 0.2-0.6 0.4-1.2 0.7-1.8 1.1 0 0 0 0.1-0.1 0.1 0 0-0.1 0.1-0.2 0.1-0.1 0-0.1 0.1-0.2 0.2-0.1 0-0.1 0-0.2 0.1 0 0-0.1 0.1-0.1 0.1-0.1 0-0.2 0-0.2 0.1 0 0-0.1 0.1-0.1 0.2 0 0-0.1 0-0.2 0 0 0-0.1 0.1-0.1 0.2 0 0-0.1 0-0.2 0-0.1 0-0.1 0.2-0.2 0.2-0.1 0.1-0.2 0-0.2 0.1 0 0-0.1 0.1-0.1 0.2-0.1 0-0.2 0.1-0.3 0.2-0.1 0.1-0.3 0.2-0.4 0.3-0.1 0.1-0.3 0.3-0.4 0.4-0.1 0.1-0.3 0.2-0.4 0.3-0.1 0.1-0.2 0.1-0.2 0.2 0 0-0.1 0.1-0.1 0.2 0 0-0.1 0-0.2 0-0.1 0.1-0.2 0.3-0.3 0.4-0.6 0.5-1.3 0.9-1.9 1.4 0 0 0 0.1-0.1 0.1-0.1 0-0.1 0.2-0.2 0.2-0.1 0-0.2 0.2-0.3 0.2-0.1 0.1-0.2 0.1-0.2 0.2-0.1 0-0.1 0.1-0.2 0.2 0 0-0.1 0-0.2 0 0 0-0.1 0.1-0.1 0.2-0.1 0.1-0.2 0-0.2 0.1 0 0-0.1 0.1-0.1 0.2 0 0-0.1 0-0.2 0-0.1 0.1-0.1 0.2-0.2 0.2 0 0-0.1 0-0.2 0-0.2 0.2-0.4 0.4-0.6 0.6-0.1 0.1-0.2 0.1-0.2 0.2 0 0.1 0.1 0.2-0.1 0.2 0.2 0.4 0.3 0.8 0.4 1 0 0 0.1 0 0.1 0.1 0 0.2 0.2 0.4 0.2 0.6 0 0 0 0.1 0 0.2 0 0 0.1 0.1 0.1 0.1 0.1 0.3 0 0.8 0 1.1 0 0.7 0 1.1-0.2 1.5 0 0.1 0 0.1-0.1 0.2 0 0 0 0.1 0 0.2-0.1 0.1-0.1 0.1-0.1 0.2 0 0-0.1 0.2-0.1 0.2 0 0-0.1 0-0.1 0 0 0 0 0.1 0 0.2 0 0-0.1 0-0.1 0 0 0 0 0.1 0 0.2-0.1 0.1-0.3 0.5-0.4 0.8 0 0.1-0.1 0.3-0.2 0.4 0 0 0 0.1 0 0.2 0 0-0.1 0-0.1 0 0 0 0 0.1 0 0.2 0 0-0.2 0.2-0.2 0.3 0 0 0 0.1 0 0.1-0.1 0.1-0.2 0.2-0.2 0.2 0 0 0 0.1 0 0.2-0.1 0.1-0.1 0.1-0.2 0.2-0.1 0.1-0.2 0.1-0.2 0.2-0.1 0.2-0.3 0.4-0.4 0.6-0.1 0.1-0.2 0.1-0.2 0.2 0 0 0 0.1 0 0.2-0.2 0.1-0.6 0.4-0.9 0.6-0.1 0-0.1 0.1-0.2 0.2-0.1 0.1-0.2 0-0.2 0.1 0 0-0.1 0.1-0.2 0.2 0 0-0.1 0-0.2 0 0 0 0 0.1 0 0.1 0 0-0.1 0-0.2 0-0.2 0.2-0.9 0.3-1.4 0.4-0.1 0-0.2 0-0.3 0-0.3 0.1-1 0.1-1.6 0.1-0.3 0-0.5 0.1-0.7 0-0.1 0-0.3 0-0.5 0-0.3 0-0.7-0.2-1-0.2-0.2 0-0.4 0-0.6-0.1-0.2 0-0.2 0-0.4-0.1-0.2 0-0.7-0.3-0.9-0.5-0.1-0.1-0.2-0.1-0.3-0.2 0 0-0.1-0.1-0.1-0.1-0.1 0-0.2-0.2-0.3-0.2 0 0-0.1-0.1-0.2-0.1-0.1 0-0.2 0-0.2-0.1 0 0-0.1-0.1-0.1-0.2 0 0-0.1 0-0.2 0 0 0-0.1-0.1-0.1-0.2 0 0-0.1 0-0.2 0 0 0-0.1-0.1-0.1-0.2-0.1 0-0.2-0.1-0.3-0.2-0.1-0.1-0.3-0.2-0.4-0.3 0 0-0.1-0.1-0.1-0.2-0.1 0-0.2 0-0.3-0.2-0.1-0.1 0-0.2-0.1-0.2 0 0-0.1 0-0.2-0.1-0.1-0.1-0.1-0.2-0.2-0.3 0 0-0.1 0-0.1-0.1 0-0.1-0.1-0.2-0.2-0.3 0 0 0-0.1 0-0.2 0 0-0.1 0-0.1 0-0.1-0.2-0.2-0.4-0.2-0.6 0 0-0.1 0-0.1-0.1 0-0.1-0.2-0.2-0.2-0.3 0-0.1-0.1-0.3-0.2-0.4 0-0.2 0.1-0.6 0.2-1 0-0.3 0-0.6 0.1-1 0 0 0.1 0 0.1-0.1 0-0.1 0-0.3 0-0.5 0 0 0.1 0 0.1-0.1 0-0.2 0-0.2 0.1-0.3 0-0.1 0-0.2 0.1-0.2 0-0.1 0.1-0.2 0.2-0.3 0.1-0.4 0.1-0.8 0.2-1.1 0 0 0.1 0 0.1-0.1 0-0.1 0.1-0.3 0.2-0.4 0.1-0.2 0.3-0.2 0.4-0.4 0.2-0.2 0.3-0.5 0.5-0.7 0-0.1 0.1-0.1 0.2-0.2 0 0 0-0.1 0-0.2 0 0 0.1-0.1 0.2-0.1 0 0 0-0.1 0-0.2 0 0 0.1-0.1 0.2-0.1 0 0 0-0.1 0-0.2 0 0 0.1-0.1 0.2-0.1 0.1-0.1 0-0.2 0.1-0.2 0 0 0.1-0.1 0.2-0.1 0 0 0-0.1 0-0.2 0.1-0.1 0.2-0.1 0.2-0.2 0.2-0.2 0.3-0.3 0.5-0.5 0 0 0-0.1 0.1-0.1 0 0 0.1 0 0.1 0 0.1-0.1 0.2-0.2 0.2-0.2 0.1-0.1 0.2-0.1 0.3-0.2 0 0 0-0.1 0.1-0.1 0.1 0 0.2-0.2 0.3-0.2 0 0 0.2-0.1 0.2-0.1 0.1 0 0.2-0.2 0.2-0.2 0.1 0 0.3 0 0.4-0.1 0 0 0-0.1 0.1-0.1 0 0 0.1 0 0.1 0 0 0 0.1-0.1 0.1-0.1 0.3-0.1 0.6 0 1-0.1 0 0 0-0.1 0.1-0.1 0.4 0 1.2-0.1 1.7-0.2 0.3 0 0.7 0 1 0 0.3 0 0.7 0.2 1 0.4 0.1 0 0.2 0 0.3 0.1 0 0 0.1 0.1 0.2 0.2 0.3 0.1 0.6 0.2 1 0.1 0.1-0.1 0.1-0.1 0.2-0.2 0.2-0.1 0.3-0.2 0.6-0.4 0.1-0.1 0.1-0.2 0.2-0.2 0.1 0 0.2-0.2 0.2-0.2 0.1 0 0.2-0.2 0.3-0.2 0.4-0.3 1-0.7 1.4-1 0.1-0.1 0.2-0.2 0.2-0.2 0 0 0.1 0 0.2 0 0.1-0.1 0.1-0.1 0.2-0.2 0.1-0.1 0.2-0.2 0.2-0.2 0 0 0.1 0 0.2 0 0.3-0.3 0.8-0.7 1.1-1 0.2-0.2 0.4-0.5 0.7-0.7 0.2-0.2 0.5-0.4 0.7-0.6 0.1-0.1 0.1-0.2 0.2-0.2 0.1-0.1 0.2-0.1 0.3-0.2 0.1-0.1 0.1-0.2 0.2-0.2 0.1 0 0.2-0.2 0.2-0.2 0.1 0 0.4-0.3 0.6-0.4 0.1 0 0.2-0.2 0.2-0.2 0 0 0.1 0 0.1 0 0.1-0.1 0.1-0.2 0.2-0.2 0.1-0.1 0.3-0.1 0.5-0.2 0 0 0-0.1 0.1-0.1 0 0 0.1 0 0.1 0 0.1-0.1 0.1-0.2 0.2-0.2 0.1-0.1 0.2-0.1 0.3-0.2 0.1-0.1 0.2-0.2 0.2-0.2 0 0 0.1 0 0.2 0 0 0 0.1-0.1 0.1-0.2 0.1-0.1 0.2-0.1 0.3-0.2 0.1-0.1 0.1-0.2 0.2-0.2 0 0 0.1 0 0.2 0 0 0 0-0.1 0-0.1 0 0 0.1 0 0.2 0 0.1-0.1 0.1-0.2 0.2-0.2 0.1 0 0.2-0.2 0.3-0.2 0.1 0 0.2-0.2 0.2-0.2 0 0 0.1 0 0.1 0 0.1-0.1 0.2-0.2 0.2-0.2 0 0 0.1 0 0.2 0 0 0 0.1-0.1 0.1-0.2 0 0 0.1 0 0.2 0 0 0 0-0.1 0-0.1 0 0 0.1 0 0.2 0 0 0 0-0.1 0-0.1 0.1-0.1 0.3-0.1 0.5-0.2 0 0 0-0.1 0.1-0.1 0 0 0.1 0 0.1 0 0.1-0.1 0.1-0.2 0.2-0.2 0.5-0.4 1.1-0.7 1.7-1.1 0.1-0.1 0.1-0.2 0.2-0.2 0 0 0.1 0 0.2 0 0 0 0.1-0.1 0.1-0.2 0.1-0.1 0.3 0 0.4-0.1 0 0 0-0.1 0.1-0.1 0.2 0 0.3-0.2 0.5-0.3 0.1-0.1 0.2-0.1 0.2-0.2 0.1-0.2 0.2-0.4 0.2-0.6 0.1-0.4 0.3-0.7 0.6-1.1 0-0.1 0-0.1 0.1-0.2 0 0 0.1-0.1 0.1-0.1 0.1-0.1 0-0.2 0.1-0.3 0-0.1 0.2-0.1 0.2-0.2 0 0 0-0.1 0-0.2 0 0 0.1 0 0.2-0.1 0.1-0.2 0.2-0.3 0.3-0.5 0.1-0.1 0.3-0.3 0.4-0.4 0.2-0.2 0.3-0.3 0.6-0.5 0 0 0-0.1 0.1-0.1 0 0 0.1 0 0.1 0 0.1-0.1 0.1-0.2 0.2-0.2 0 0 0.1 0 0.2 0 0.1-0.1 0.2-0.2 0.4-0.3 0.5-0.3 0.9-0.6 1.6-0.7 0 0 0.1-0.1 0.1-0.1 0.2 0 0.4 0 0.6 0 0.4-0.1 0.7-0.2 0.8-0.4 0.1-0.2 0.1-0.2 0.2-0.6 0-0.4 0-0.7-0.1-1 0-0.1 0-0.2 0-0.3 0 0-0.1 0-0.1-0.1 0-0.1 0-0.3 0-0.4-0.1-0.3-0.1-1-0.2-1.5 0 0-0.1 0-0.1-0.1 0-0.4 0-0.7-0.1-1.2-0.1-0.4-0.2-0.8-0.3-1.2-0.1-0.5-0.2-1.1-0.3-1.6 0-0.1 0-0.2 0-0.2 0-0.1-0.1-0.2-0.1-0.5 0 0 0-0.1 0-0.2 0-0.1-0.1-0.5-0.2-0.8 0 0-0.1 0-0.1-0.1 0-0.1 0-0.2 0-0.2 0-0.2-0.1-0.9-0.2-1.3 0-0.4 0-0.6-0.2-0.9 0-0.1-0.1-0.2-0.2-0.3 0 0-0.1 0-0.2 0 0 0 0-0.1 0-0.1 0 0-0.1 0-0.2 0 0 0 0-0.1 0-0.1 0 0-0.1 0-0.2 0 0 0 0-0.1 0-0.1 0 0-0.1 0-0.2 0 0 0 0-0.1 0-0.1 0 0-0.1 0-0.2 0 0 0 0-0.1 0-0.1 0 0-0.1 0-0.2 0-0.1-0.1-0.6-0.2-0.8-0.3-0.2-0.1-0.5-0.2-0.6-0.3 0 0 0-0.1-0.1-0.1 0 0-0.5-0.4-0.6-0.5 0 0 0-0.1 0-0.2 0 0-0.1 0-0.1 0 0 0 0-0.1 0-0.2 0 0-0.1 0-0.1 0 0 0 0-0.1 0-0.2 0 0-0.1-0.1-0.2-0.1 0 0 0-0.1 0-0.2-0.2-0.2-0.5-0.4-0.7-0.7-0.1-0.2-0.1-0.3-0.2-0.6-0.1-0.4-0.5-1.2-0.6-1.8 0-0.4 0-0.9 0.1-1.2 0-0.1 0.1-0.2 0.2-0.3 0.1-0.2 0.1-0.5 0.2-0.7 0 0 0.1 0 0.1-0.1 0-0.1 0.1-0.2 0.2-0.3 0 0 0-0.1 0-0.2 0 0 0.1 0 0.1 0 0 0 0-0.1 0-0.2 0 0 0.1 0 0.1 0 0 0 0-0.1 0-0.2 0.1-0.1 0.1-0.1 0.2-0.2 0.2-0.3 0.4-0.9 0.9-1 0.1-0.3 0.3-0.5 0.4-0.7 0.2 0 0.4-0.2 0.6-0.3 0 0 0.1-0.1 0.1-0.2 0 0 0.1 0 0.2 0 0 0 0.1-0.1 0.1-0.2 0 0 0.1 0 0.2 0 0 0 0-0.1 0.1-0.2 0 0 0.1 0 0.2 0 0 0 0-0.1 0-0.1 0.1-0.1 0.2 0 0.3-0.1 0.1-0.1 0.2-0.1 0.4-0.2 0.2-0.1 0.7-0.2 1-0.3 0 0 0-0.1 0.1-0.1 0.1 0 0.2 0 0.3-0.1 0.1 0 0.1-0.1 0.2-0.1 0.1 0 0.5-0.1 0.7-0.2 0.2 0 0.4-0.1 0.9 0 0 0 0 0.1 0.1 0.1 0.3 0.1 0.7 0 1.1 0.1 0.4 0 0.6 0.1 1 0.2 0.2 0.1 0.4 0.1 0.6 0.2 0.1 0 0.2 0.1 0.3 0.2 0.1 0 0.2 0 0.2 0.1 0 0 0.1 0.1 0.2 0.2 0.1 0.1 0.4 0.1 0.5 0.2 0.1 0 0.1 0.1 0.2 0.2 0.1 0 0.2 0 0.2 0.1 0.1 0 0.1 0.1 0.2 0.2 0.1 0.1 0.2 0.3 0.4 0.4 0.1 0.1 0.2 0 0.2 0.1 0 0 0 0.1 0.1 0.2 0.2 0.1 0.3 0.2 0.5 0.5 0 0.1 0 0.1 0.1 0.2 0.1 0.1 0.1 0.2 0.2 0.2 0 0 0.1 0.1 0.1 0.1 0 0.1 0 0.2 0.1 0.2 0 0.1 0.2 0.1 0.2 0.2 0 0 0 0.1 0 0.2 0.1 0.1 0.1 0.1 0.2 0.2 0 0.1 0.1 0.1 0.1 0.2 0 0.1 0.1 0.5 0.2 0.9 0 0.3 0 0.5 0 0.8 0 0.5 0.1 1.1 0.1 1.5 0 0.5-0.3 1-0.4 1.5 0 0.1-0.1 0.3-0.1 0.4-0.1 0.3-0.1 0.5-0.2 0.7 0 0 0 0.1 0 0.2 0 0-0.1 0-0.1 0 0 0 0 0.1 0 0.2 0 0-0.1 0-0.1 0 0 0 0 0.1 0 0.2 0 0-0.1 0-0.2 0.1 0 0-0.1 0.2-0.1 0.2-0.2 0.1-0.2 0.1-0.4 0.2-0.1 0-0.1 0.1-0.2 0.2C55.2 27.9 55.1 28 55 28c0 0-0.1 0.1-0.2 0.2-0.1 0.1-0.2 0-0.3 0.1-0.1 0-0.1 0.1-0.2 0.2-0.1 0-0.1 0-0.2 0.1-0.1 0.1-0.1 0.1-0.2 0.2-0.1 0.1-0.4 0.2-0.6 0.3 0 0 0 0.1-0.1 0.1-0.1 0-0.2 0.1-0.3 0.2 0 0-0.1 0-0.2 0C52.8 29.4 52.8 29.5 52.6 29.6zM49.1 21c0 0-0.1 0-0.2 0 0 0-0.1 0.1-0.2 0.2-0.3 0.1-0.3 0.2-0.5 0.4-0.2 0.3-0.4 0.7-0.6 0.9-0.1 0.2-0.2 0.5-0.3 0.6 0 0 0 0.1 0 0.2 0 0.1-0.1 0.1-0.2 0.2-0.2 0.6-0.3 0.9-0.2 1.4 0.1 0.3 0.2 0.5 0.3 0.6 0.4 0.4 1.7 0.2 2.1 0.2 0.4-0.1 0.8-0.2 1-0.3 0.2-0.1 0.5-0.2 0.6-0.2 0.1 0 0.1 0 0.2-0.1 0.2-0.1 0.2-0.2 0.3-0.5 0 0 0.1 0 0.1 0 0 0 0-0.1 0-0.2 0.1-0.4 0.2-1 0.2-1.4 0.1-0.6 0-0.9-0.2-1.3C50.9 21.1 50.1 21.2 49.1 21zM78.9 42.3c0 0-0.1 0.1-0.2 0.2-0.2 0.1-0.4 0.2-0.5 0.3-0.1 0.1-0.1 0.2-0.2 0.3-0.1 0.1-0.2 0.2-0.2 0.3 0 0.1-0.1 0.2-0.2 0.2-0.1 0.1-0.2 0.1-0.2 0.2-0.1 0.1-0.1 0.1-0.2 0.2 0 0 0 0.1 0 0.2 0 0-0.1 0-0.1 0 0 0 0 0.1 0 0.2 0 0-0.1 0-0.1 0 0 0 0 0.1 0 0.2 0 0-0.1 0-0.1 0 0 0 0 0.1 0 0.2 0 0-0.1 0-0.1 0-0.1 0.1 0 1.2 0.1 1.4 0.1 0.3 0.2 0.5 0.3 0.6 0.1 0.1 0.1 0.2 0.2 0.2 0.1 0 0 0.1 0.1 0.1 0.1 0.1 0.5 0.2 0.6 0.2 0.4 0 1-0.2 1.6-0.6 0.2-0.1 0.6-0.4 0.8-0.6 0.2-0.1 0.4-0.3 0.5-0.4 0.1-0.1 0-0.2 0.1-0.3 0 0 0.1-0.1 0.1-0.1 0 0 0.1-0.1 0.1-0.2 0.2-0.6 0.1-0.8 0-1.4-0.1-0.3 0-0.3-0.1-0.4 0 0 0-0.1 0-0.2 0 0-0.1 0-0.1 0 0 0 0-0.1 0-0.2 0 0-0.1-0.1-0.2-0.2-0.1-0.1-0.3-0.2-0.4-0.2 0 0-0.1-0.1-0.2-0.1-0.1 0 0-0.1-0.1-0.1-0.3-0.1-1-0.2-1.3-0.2-0.1 0-0.1 0.1-0.1 0.1C79.1 42.3 78.9 42.2 78.9 42.3zM49.6 45.5c0 0-0.1 0.1-0.2 0.2-0.2 0.1-0.4 0.2-0.6 0.4-0.3 0.3-0.4 0.4-0.6 0.7-0.1 0.1-0.2 0.3-0.2 0.4 0 0.1 0 0.1-0.1 0.2 0 0-0.1 0.1-0.2 0.2 0 0.1 0 0.1-0.1 0.2 0 0-0.1 0.1-0.2 0.2 0 0.1-0.1 0.3-0.1 0.3-0.1 0.3-0.2 0.6-0.2 0.7 0 0.1-0.1 0.2-0.1 0.3-0.1 0.3 0 0.4-0.1 0.6-0.1 0.9 0 1.2 0.4 1.8 0 0.1 0 0.2 0.1 0.2 0 0.1 0.2 0.1 0.2 0.2 0.1 0.1 0 0.2 0.1 0.2 0.1 0.1 0.2 0.1 0.2 0.2 0.1 0.1 0.2 0.3 0.3 0.4 0.1 0 0.2 0 0.2 0.1 0 0 0.1 0.1 0.1 0.2 0 0 0.1 0 0.2 0 0 0 0.1 0.1 0.2 0.2 0.6 0.5 1.6 0.3 2.3 0.1 0.1 0 0.1-0.1 0.1-0.1 0.2-0.1 0.4-0.1 0.6-0.2 0 0 0-0.1 0.1-0.2 0.1-0.1 0.2 0 0.2-0.1 0.1-0.1 0.2-0.2 0.3-0.3 0.1-0.1 0.2-0.2 0.2-0.3 0.1-0.1 0.3-0.3 0.3-0.4 0-0.1 0.1 0 0.1-0.1 0.1-0.2 0.2-0.3 0.2-0.4 0.1-0.2 0.2-0.3 0.2-0.4 0 0 0.1-0.1 0.2-0.2 0.1-0.1 0.1-0.4 0.2-0.5 0-0.2 0-0.4 0.1-0.6 0.1-0.3 0-0.5 0-0.6-0.1-0.3 0-0.4-0.2-0.5 0 0 0-0.1 0-0.2 0 0-0.1 0-0.1 0 0 0 0-0.1 0-0.2 0 0-0.1 0-0.1 0 0 0 0-0.1 0-0.2 0 0-0.1 0-0.1 0 0 0 0-0.1 0-0.2 0-0.1-0.2-0.2-0.2-0.2-0.1-0.1-0.3-0.3-0.4-0.4 0 0-0.1 0-0.2 0-0.2-0.2-0.3-0.3-0.5-0.5-0.4-0.4-1-1-1.3-1.4 0 0-0.1 0-0.2 0-0.1-0.1-0.2-0.2-0.2-0.2-0.1-0.1-0.2 0-0.3-0.2-0.1 0-0.2 0-0.2 0C50 45.2 49.8 45.3 49.6 45.5zM18.2 68c0 0 0.1 0.1 0.2 0.2 0 0.1 0 0.2 0.1 0.2 0.1 0.1 0.1 0.3 0.2 0.4 0.1 0.1 0.3 0.4 0.3 0.4 0.1 0 0 0.1 0.1 0.1 0.1 0 0.2 0 0.2 0.1 0.1 0.1 0.2 0.2 0.3 0.3 0.1 0.1 0.1 0.1 0.2 0.2 0.1 0.1 0.3 0.1 0.3 0.2 0.2 0.1 0.5 0.1 0.7 0.2 0.3 0 0.6 0.1 0.8-0.1 0 0 0.1 0 0.2 0 0.3-0.1 0.5-0.2 0.6-0.4 0 0 0.1 0 0.2 0 0.1-0.1 0.5-0.5 0.5-0.6 0-0.1 0.2-0.2 0.2-0.2 0 0 0-0.1 0-0.2 0-0.1 0.1-0.1 0.2-0.2 0.1-0.1 0.1-0.1 0.2-0.2 0 0 0-0.1 0-0.2 0 0 0.1 0 0.1 0 0 0 0-0.1 0-0.2 0 0 0.1 0 0.1 0 0 0 0-0.1 0-0.2 0 0 0.1 0 0.1 0 0 0 0-0.1 0-0.2 0 0 0.1 0 0.1 0 0 0 0-0.1 0-0.2 0.1-0.2 0.1-0.3 0.2-0.4 0-0.2 0.1-0.7 0-1.1 0-0.1-0.3-0.9-0.4-1 0 0 0-0.1 0-0.2 0 0-0.1 0-0.1 0 0 0 0-0.1 0-0.2 0 0-0.1-0.1-0.2-0.1 0 0 0-0.1 0-0.2 0 0-0.1 0-0.1 0 0 0 0-0.1 0-0.2 0 0-0.1 0-0.1 0 0 0 0-0.1 0-0.2 0-0.1-0.2-0.1-0.2-0.2-0.1-0.1-0.1-0.3-0.2-0.3-0.1-0.1-0.3-0.2-0.4-0.3-0.1-0.1-0.2-0.3-0.3-0.4 0 0-0.2 0-0.2 0 0 0-0.1-0.1-0.2-0.2-0.1-0.1-0.2-0.1-0.3-0.2-0.3-0.1-0.4 0.1-0.5 0.2-0.3 0.2-0.6 0.4-0.8 0.6-0.2 0.2-0.3 0.4-0.4 0.6-0.1 0.1-0.2 0.2-0.2 0.2 0 0 0 0.1 0 0.1 0 0.1-0.1 0-0.1 0.1-0.2 0.3-0.3 0.4-0.5 0.6 0 0 0 0.1 0 0.2 0 0-0.1 0-0.1 0 0 0 0 0.1 0 0.2 0 0.1-0.2 0.1-0.2 0.2 0 0.1-0.1 0-0.1 0.1-0.1 0.2-0.2 0.3-0.2 0.4-0.1 0.1-0.1 0.3-0.2 0.5-0.1 0.4-0.1 0.8-0.2 1.2C18.1 67.7 18.1 67.9 18.2 68zM71.1 74.8c-0.1-0.1-0.2-0.2-0.3-0.3-0.1-0.1-0.1 0-0.2-0.1 0 0-0.1-0.1-0.2-0.2-0.1-0.1-0.3-0.1-0.3-0.2-0.1-0.1-0.4-0.1-0.7-0.2-0.2 0-0.4-0.1-0.6-0.1-0.1 0-0.2 0.1-0.2 0.1-0.1 0 0 0.1-0.1 0.1-0.1 0-0.2 0-0.4 0.1 0 0 0 0.1 0 0.1 0 0-0.1 0-0.2 0 0 0-0.1 0.1-0.2 0.2-0.1 0.1-0.2 0.2-0.3 0.3-0.6 0.6-1.4 1.6-1.4 2.3 0 0.3 0.1 0.6 0.3 0.9 0 0 0.1 0.1 0.2 0.2 0 0.1 0 0.2 0.1 0.2 0.2 0.2 0.4 0.3 0.6 0.4 0 0 0 0.1 0 0.1 0 0 0.1 0 0.2 0 0.3 0.1 0.6 0.2 0.9 0.2 0.6 0.1 1.3 0.2 1.7 0.2C70 79 70 79 70.1 79c0.1 0 0-0.1 0.1-0.1 0.1-0.1 0.2-0.1 0.3-0.2 0.1-0.1 0.1-0.2 0.2-0.2 0 0 0.1 0 0.1 0 0.1 0 0-0.1 0.1-0.1 0.3-0.2 0.5-0.3 0.7-0.5 0.1-0.1 0.4-0.3 0.4-0.4 0-0.1 0.1-0.3 0.2-0.5 0.1-0.4 0.1-0.6 0-0.9 0-0.2-0.1-0.3-0.2-0.5 0 0-0.1-0.1-0.2-0.1 0-0.1 0-0.2-0.1-0.2 0 0-0.1-0.1-0.2-0.2 0-0.1 0-0.2-0.1-0.2C71.4 74.9 71.2 74.8 71.1 74.8z" fill="#0074d9" data-fill-palette-color="accent"></path></svg>
            </g>
        </svg>
    </g>
</svg>
